<?xml version="1.0" encoding="UTF-8" standalone="no"?>
<!DOCTYPE svg PUBLIC "-//W3C//DTD SVG 1.1//EN"
 "http://www.w3.org/Graphics/SVG/1.1/DTD/svg11.dtd">
<!-- Generated by graphviz version 2.26.0 (20091210.2329)
 -->
<!-- Title: G Pages: 1 -->
<svg width="618pt" height="855pt"
 viewBox="0.00 0.00 618.00 855.00" xmlns="http://www.w3.org/2000/svg" xmlns:xlink="http://www.w3.org/1999/xlink">
<g id="graph1" class="graph" transform="scale(1 1) rotate(0) translate(4 851)">
<title>G</title>
<polygon fill="white" stroke="white" points="-4,5 -4,-851 615,-851 615,5 -4,5"/>
<g id="graph2" class="cluster"><title>cluster_global</title>
<polyline fill="none" stroke="gray" points="182,-8 590,-8 "/>
<path fill="none" stroke="gray" d="M590,-8C596,-8 602,-14 602,-20"/>
<polyline fill="none" stroke="gray" points="602,-20 602,-827 "/>
<path fill="none" stroke="gray" d="M602,-827C602,-833 596,-839 590,-839"/>
<polyline fill="none" stroke="gray" points="590,-839 182,-839 "/>
<path fill="none" stroke="gray" d="M182,-839C176,-839 170,-833 170,-827"/>
<polyline fill="none" stroke="gray" points="170,-827 170,-20 "/>
<path fill="none" stroke="gray" d="M170,-20C170,-14 176,-8 182,-8"/>
<text text-anchor="middle" x="386" y="-825.1" font-family="Times Roman,serif" font-size="11.00" fill="gray">global</text>
</g>
<!-- \\DeployerException -->
<g id="node2" class="node"><title>\\DeployerException</title>
<a xlink:href="classes.DeployerException.html" xlink:title="DeployerException" target="_parent">
<polygon fill="none" stroke="black" points="556,-808 426,-808 426,-772 556,-772 556,-808"/>
<text text-anchor="middle" x="491" y="-787.1" font-family="Courier,monospace" font-size="11.00">DeployerException</text>
</a>
</g>
<!-- \\NedStars_Exception -->
<g id="node16" class="node"><title>\\NedStars_Exception</title>
<a xlink:href="classes.NedStars.Exception.html" xlink:title="NedStars_Exception" target="_parent">
<polygon fill="none" stroke="black" points="316,-484 178,-484 178,-448 316,-448 316,-484"/>
<text text-anchor="middle" x="247" y="-463.1" font-family="Courier,monospace" font-size="11.00">NedStars_Exception</text>
</a>
</g>
<!-- \\DeployerException&#45;&gt;\\NedStars_Exception -->
<g id="edge3" class="edge"><title>\\DeployerException&#45;&gt;\\NedStars_Exception</title>
<path fill="none" stroke="black" d="M425.352,-781.861C411.937,-777.827 398.676,-771.846 388,-763 301.32,-691.173 264.51,-553.74 252.177,-494.419"/>
<polygon fill="none" stroke="black" points="255.544,-493.406 250.153,-484.285 248.68,-494.777 255.544,-493.406"/>
</g>
<!-- \\Pushover_API -->
<g id="node3" class="node"><title>\\Pushover_API</title>
<a xlink:href="classes.Pushover.API.html" xlink:title="Pushover_API" target="_parent">
<polygon fill="none" stroke="black" points="540,-754 442,-754 442,-718 540,-718 540,-754"/>
<text text-anchor="middle" x="491" y="-733.1" font-family="Courier,monospace" font-size="11.00">Pushover_API</text>
</a>
</g>
<!-- \\Deployer -->
<g id="node4" class="node"><title>\\Deployer</title>
<a xlink:href="classes.Deployer.html" xlink:title="Deployer" target="_parent">
<polygon fill="none" stroke="black" points="526,-700 456,-700 456,-664 526,-664 526,-700"/>
<text text-anchor="middle" x="491" y="-679.1" font-family="Courier,monospace" font-size="11.00">Deployer</text>
</a>
</g>
<!-- \\Notification -->
<g id="node5" class="node"><title>\\Notification</title>
<a xlink:href="classes.Notification.html" xlink:title="Notification" target="_parent">
<polygon fill="none" stroke="black" points="540,-646 442,-646 442,-610 540,-610 540,-646"/>
<text text-anchor="middle" x="491" y="-625.1" font-family="Courier,monospace" font-size="11.00">Notification</text>
</a>
</g>
<!-- \\DeployConfig -->
<g id="node6" class="node"><title>\\DeployConfig</title>
<a xlink:href="classes.DeployConfig.html" xlink:title="DeployConfig" target="_parent">
<polygon fill="none" stroke="black" points="540,-592 442,-592 442,-556 540,-556 540,-592"/>
<text text-anchor="middle" x="491" y="-571.1" font-family="Courier,monospace" font-size="11.00">DeployConfig</text>
</a>
</g>
<!-- \\NedStars_GitException -->
<g id="node7" class="node"><title>\\NedStars_GitException</title>
<a xlink:href="classes.NedStars.GitException.html" xlink:title="NedStars_GitException" target="_parent">
<polygon fill="none" stroke="black" points="570,-538 412,-538 412,-502 570,-502 570,-538"/>
<text text-anchor="middle" x="491" y="-517.1" font-family="Courier,monospace" font-size="11.00">NedStars_GitException</text>
</a>
</g>
<!-- \\NedStars_GitException&#45;&gt;\\NedStars_Exception -->
<g id="edge5" class="edge"><title>\\NedStars_GitException&#45;&gt;\\NedStars_Exception</title>
<path fill="none" stroke="black" d="M411.78,-502.468C384.391,-496.406 353.708,-489.616 326.311,-483.553"/>
<polygon fill="none" stroke="black" points="326.899,-480.098 316.379,-481.354 325.386,-486.933 326.899,-480.098"/>
</g>
<!-- \\NedStars_ArgumentsException -->
<g id="node8" class="node"><title>\\NedStars_ArgumentsException</title>
<a xlink:href="classes.NedStars.ArgumentsException.html" xlink:title="NedStars_ArgumentsException" target="_parent">
<polygon fill="none" stroke="black" points="590,-484 392,-484 392,-448 590,-448 590,-484"/>
<text text-anchor="middle" x="491" y="-463.1" font-family="Courier,monospace" font-size="11.00">NedStars_ArgumentsException</text>
</a>
</g>
<!-- \\NedStars_ArgumentsException&#45;&gt;\\NedStars_Exception -->
<g id="edge7" class="edge"><title>\\NedStars_ArgumentsException&#45;&gt;\\NedStars_Exception</title>
<path fill="none" stroke="black" d="M391.404,-466C369.661,-466 346.935,-466 326.118,-466"/>
<polygon fill="none" stroke="black" points="326.064,-462.5 316.064,-466 326.064,-469.5 326.064,-462.5"/>
</g>
<!-- \\NedStars_Git -->
<g id="node9" class="node"><title>\\NedStars_Git</title>
<a xlink:href="classes.NedStars.Git.html" xlink:title="NedStars_Git" target="_parent">
<polygon fill="none" stroke="black" points="540,-430 442,-430 442,-394 540,-394 540,-430"/>
<text text-anchor="middle" x="491" y="-409.1" font-family="Courier,monospace" font-size="11.00">NedStars_Git</text>
</a>
</g>
<!-- \\NedStars_FileSystem -->
<g id="node10" class="node"><title>\\NedStars_FileSystem</title>
<a xlink:href="classes.NedStars.FileSystem.html" xlink:title="NedStars_FileSystem" target="_parent">
<polygon fill="none" stroke="black" points="563,-376 419,-376 419,-340 563,-340 563,-376"/>
<text text-anchor="middle" x="491" y="-355.1" font-family="Courier,monospace" font-size="11.00">NedStars_FileSystem</text>
</a>
</g>
<!-- \\NedStars_Arguments -->
<g id="node11" class="node"><title>\\NedStars_Arguments</title>
<a xlink:href="classes.NedStars.Arguments.html" xlink:title="NedStars_Arguments" target="_parent">
<polygon fill="none" stroke="black" points="560,-322 422,-322 422,-286 560,-286 560,-322"/>
<text text-anchor="middle" x="491" y="-301.1" font-family="Courier,monospace" font-size="11.00">NedStars_Arguments</text>
</a>
</g>
<!-- \\NedStars_Execution -->
<g id="node12" class="node"><title>\\NedStars_Execution</title>
<a xlink:href="classes.NedStars.Execution.html" xlink:title="NedStars_Execution" target="_parent">
<polygon fill="none" stroke="black" points="560,-268 422,-268 422,-232 560,-232 560,-268"/>
<text text-anchor="middle" x="491" y="-247.1" font-family="Courier,monospace" font-size="11.00">NedStars_Execution</text>
</a>
</g>
<!-- \\NedStars_Log -->
<g id="node13" class="node"><title>\\NedStars_Log</title>
<a xlink:href="classes.NedStars.Log.html" xlink:title="NedStars_Log" target="_parent">
<polygon fill="none" stroke="black" points="540,-214 442,-214 442,-178 540,-178 540,-214"/>
<text text-anchor="middle" x="491" y="-193.1" font-family="Courier,monospace" font-size="11.00">NedStars_Log</text>
</a>
</g>
<!-- \\NedStars_FileSystemException -->
<g id="node14" class="node"><title>\\NedStars_FileSystemException</title>
<a xlink:href="classes.NedStars.FileSystemException.html" xlink:title="NedStars_FileSystemException" target="_parent">
<polygon fill="none" stroke="black" points="594,-160 388,-160 388,-124 594,-124 594,-160"/>
<text text-anchor="middle" x="491" y="-139.1" font-family="Courier,monospace" font-size="11.00">NedStars_FileSystemException</text>
</a>
</g>
<!-- \\NedStars_FileSystemException&#45;&gt;\\NedStars_Exception -->
<g id="edge9" class="edge"><title>\\NedStars_FileSystemException&#45;&gt;\\NedStars_Exception</title>
<path fill="none" stroke="black" d="M398.736,-160.294C394.879,-162.844 391.267,-165.732 388,-169 301.031,-255.995 397.593,-347.392 318.671,-440.304"/>
<polygon fill="none" stroke="black" points="315.96,-438.084 311.866,-447.855 321.16,-442.77 315.96,-438.084"/>
</g>
<!-- \\NedStars_LogException -->
<g id="node15" class="node"><title>\\NedStars_LogException</title>
<a xlink:href="classes.NedStars.LogException.html" xlink:title="NedStars_LogException" target="_parent">
<polygon fill="none" stroke="black" points="570,-106 412,-106 412,-70 570,-70 570,-106"/>
<text text-anchor="middle" x="491" y="-85.1" font-family="Courier,monospace" font-size="11.00">NedStars_LogException</text>
</a>
</g>
<!-- \\Exception -->
<g id="node23" class="node"><title>\\Exception</title>
<ellipse fill="none" stroke="black" cx="53" cy="-360" rx="53.033" ry="19.0919"/>
<text text-anchor="middle" x="53" y="-356.9" font-family="Times Roman,serif" font-size="14.00" fill="gray">\Exception</text>
</g>
<!-- \\NedStars_LogException&#45;&gt;\\Exception -->
<g id="edge11" class="edge"><title>\\NedStars_LogException&#45;&gt;\\Exception</title>
<path fill="none" stroke="black" d="M411.739,-105.509C403.566,-108.276 395.512,-111.427 388,-115 261.169,-175.317 133.271,-285.813 79.4553,-335.111"/>
<polygon fill="none" stroke="black" points="77.0417,-332.575 72.0618,-341.927 81.7865,-337.722 77.0417,-332.575"/>
</g>
<!-- \\NedStars_Exception&#45;&gt;\\Exception -->
<g id="edge13" class="edge"><title>\\NedStars_Exception&#45;&gt;\\Exception</title>
<path fill="none" stroke="black" d="M178.907,-447.961C175.862,-446.712 172.879,-445.392 170,-444 137.12,-428.098 103.672,-402.997 81.0083,-384.371"/>
<polygon fill="none" stroke="black" points="83.0884,-381.548 73.1672,-377.83 78.6047,-386.924 83.0884,-381.548"/>
</g>
<!-- \\Notifo_API -->
<g id="node17" class="node"><title>\\Notifo_API</title>
<a xlink:href="classes.Notifo.API.html" xlink:title="Notifo_API" target="_parent">
<polygon fill="none" stroke="black" points="533,-52 449,-52 449,-16 533,-16 533,-52"/>
<text text-anchor="middle" x="491" y="-31.1" font-family="Courier,monospace" font-size="11.00">Notifo_API</text>
</a>
</g>
</g>
</svg>
